<svg width="32" height="32" viewBox="0 0 32 32" fill="none" xmlns="http://www.w3.org/2000/svg">
<path d="M15.9857 1.33737e-06C7.15357 -0.00357009 0 7.14643 0 15.9714C0 22.95 4.475 28.8821 10.7071 31.0607C11.5464 31.2714 11.4179 30.675 11.4179 30.2679V27.5C6.57143 28.0679 6.375 24.8607 6.05 24.325C5.39286 23.2036 3.83929 22.9179 4.30357 22.3821C5.40714 21.8143 6.53214 22.525 7.83571 24.45C8.77857 25.8464 10.6179 25.6107 11.55 25.3786C11.7536 24.5393 12.1893 23.7893 12.7893 23.2071C7.76786 22.3071 5.675 19.2429 5.675 15.6C5.675 13.8321 6.25714 12.2071 7.4 10.8964C6.67143 8.73572 7.46786 6.88572 7.575 6.61072C9.65 6.425 11.8071 8.09643 11.975 8.22857C13.1536 7.91072 14.5 7.74286 16.0071 7.74286C17.5214 7.74286 18.8714 7.91786 20.0607 8.23929C20.4643 7.93214 22.4643 6.49643 24.3929 6.67143C24.4964 6.94643 25.275 8.75357 24.5893 10.8857C25.7464 12.2 26.3357 13.8393 26.3357 15.6107C26.3357 19.2607 24.2286 22.3286 19.1929 23.2143C19.6242 23.6385 19.9667 24.1443 20.2003 24.7023C20.4339 25.2604 20.554 25.8593 20.5536 26.4643V30.4821C20.5821 30.8036 20.5536 31.1214 21.0893 31.1214C27.4143 28.9893 31.9679 23.0143 31.9679 15.975C31.9679 7.14643 24.8107 1.33737e-06 15.9857 1.33737e-06Z" fill="white"/>
</svg>
